<?xml version="1.0" encoding="UTF-8"?>
<svg version="1.1" xmlns="http://www.w3.org/2000/svg" width="550" height="550">
<path d="M0 0 C1.80006727 -0.00115354 3.6001343 -0.00274262 5.40020084 -0.00472724 C10.32520385 -0.00888859 15.25018739 -0.00684434 20.17519045 -0.00374103 C25.49495861 -0.00147412 30.81472347 -0.00497297 36.13449097 -0.00772095 C46.54746883 -0.0121638 56.96043947 -0.01120877 67.37341762 -0.00830831 C75.83749752 -0.00604845 84.3015754 -0.00574428 92.76565552 -0.00683212 C93.97104668 -0.00698536 95.17643784 -0.00713859 96.418356 -0.00729647 C98.86720808 -0.0076162 101.31606017 -0.00794041 103.76491225 -0.00826906 C126.71910977 -0.0111195 149.67330331 -0.00784365 172.62750018 -0.00246869 C192.31636605 0.00199895 212.00522603 0.0012229 231.6940918 -0.00338745 C254.56706432 -0.00874089 277.44003334 -0.01084485 300.3130064 -0.00777519 C302.75276883 -0.00745664 305.19253127 -0.00714227 307.6322937 -0.00683212 C309.43283277 -0.00660071 309.43283277 -0.00660071 311.26974636 -0.00636462 C319.72207827 -0.00550178 328.17440794 -0.00695734 336.6267395 -0.00931168 C346.92954036 -0.01211841 357.23233361 -0.01135294 367.5351336 -0.00603093 C372.79011851 -0.00340574 378.04509072 -0.00236885 383.30007553 -0.00568008 C388.1137879 -0.00866736 392.92747585 -0.00700977 397.74118602 -0.00170253 C399.47926461 -0.00058872 401.21734528 -0.00114647 402.95542252 -0.00357832 C411.74853399 -0.0149342 420.45345218 0.07440768 429.19897461 1.12698364 C429.19897461 1.78698364 429.19897461 2.44698364 429.19897461 3.12698364 C430.29209961 3.10635864 431.38522461 3.08573364 432.51147461 3.06448364 C436.19897461 3.12698364 436.19897461 3.12698364 439.19897461 4.12698364 C439.19897461 4.78698364 439.19897461 5.44698364 439.19897461 6.12698364 C441.67397461 6.62198364 441.67397461 6.62198364 444.19897461 7.12698364 C444.19897461 7.78698364 444.19897461 8.44698364 444.19897461 9.12698364 C446.17897461 9.45698364 448.15897461 9.78698364 450.19897461 10.12698364 C450.19897461 10.78698364 450.19897461 11.44698364 450.19897461 12.12698364 C450.85897461 12.12698364 451.51897461 12.12698364 452.19897461 12.12698364 C452.19897461 13.11698364 452.19897461 14.10698364 452.19897461 15.12698364 C453.06522461 15.28167114 453.06522461 15.28167114 453.94897461 15.43948364 C456.6423068 16.26244626 458.20268867 17.1306977 460.19897461 19.12698364 C460.44897461 21.81448364 460.44897461 21.81448364 460.19897461 24.12698364 C461.18897461 24.12698364 462.17897461 24.12698364 463.19897461 24.12698364 C463.19897461 25.11698364 463.19897461 26.10698364 463.19897461 27.12698364 C463.85897461 27.12698364 464.51897461 27.12698364 465.19897461 27.12698364 C465.19897461 29.10698364 465.19897461 31.08698364 465.19897461 33.12698364 C466.18897461 33.12698364 467.17897461 33.12698364 468.19897461 33.12698364 C468.19897461 36.09698364 468.19897461 39.06698364 468.19897461 42.12698364 C469.18897461 42.45698364 470.17897461 42.78698364 471.19897461 43.12698364 C471.24470676 100.80245861 471.2799748 158.47793192 471.30110527 216.15342142 C471.30360004 222.95548126 471.30619313 229.75754105 471.30883789 236.55960083 C471.30909941 237.23650305 471.30936093 237.91340527 471.30963037 238.61081968 C471.31815961 260.5681653 471.3331871 282.52550064 471.35156905 304.48284003 C471.37095169 327.67751849 471.38296252 350.87219083 471.3871516 374.06687796 C471.38990208 387.96905996 471.3986034 401.87121249 471.41480754 415.77338542 C471.42534228 425.29389236 471.42858324 434.81438396 471.42597736 444.33489631 C471.42469057 449.83578813 471.42672593 455.33662832 471.43738556 460.83751106 C471.4470589 465.86585916 471.44764839 470.89412049 471.4407724 475.92247243 C471.43992154 477.74887722 471.44250856 479.57528724 471.44874097 481.40168159 C471.45667916 483.86996934 471.45249527 486.33793707 471.44507027 488.8062191 C471.45032429 489.52773356 471.45557832 490.24924802 471.46099156 490.99262655 C471.42726621 495.89869205 471.42726621 495.89869205 469.19897461 498.12698364 C468.74085786 500.09933697 468.74085786 500.09933697 468.57397461 502.25198364 C468.45022461 503.53073364 468.32647461 504.80948364 468.19897461 506.12698364 C467.20897461 506.45698364 466.21897461 506.78698364 465.19897461 507.12698364 C465.26084961 508.20979614 465.26084961 508.20979614 465.32397461 509.31448364 C465.18976156 512.33427734 464.44726842 514.39634094 463.19897461 517.12698364 C462.20897461 517.12698364 461.21897461 517.12698364 460.19897461 517.12698364 C460.19897461 518.11698364 460.19897461 519.10698364 460.19897461 520.12698364 C459.53897461 520.12698364 458.87897461 520.12698364 458.19897461 520.12698364 C457.86897461 521.11698364 457.53897461 522.10698364 457.19897461 523.12698364 C456.53897461 523.12698364 455.87897461 523.12698364 455.19897461 523.12698364 C455.19897461 524.11698364 455.19897461 525.10698364 455.19897461 526.12698364 C454.20897461 526.12698364 453.21897461 526.12698364 452.19897461 526.12698364 C452.19897461 526.78698364 452.19897461 527.44698364 452.19897461 528.12698364 C445.98845893 532.42259032 439.37544801 535.81591594 432.19897461 538.12698364 C431.12956261 538.47622727 430.06015061 538.8254709 428.95833218 539.18529767 C425.01576887 540.17287507 421.39280704 540.40684064 417.36175346 540.38145924 C416.21836055 540.38626895 416.21836055 540.38626895 415.0518688 540.39117584 C412.50080048 540.39946896 409.94996737 540.39355395 407.39889526 540.38768005 C405.55008195 540.39070107 403.70126988 540.3945903 401.85246003 540.39927262 C396.77404529 540.40956818 391.69570104 540.4073668 386.61728048 540.40309203 C381.13924997 540.40062757 375.66123655 540.4096356 370.18321228 540.41712952 C359.45083855 540.42988732 348.71848982 540.43166878 337.98610978 540.42932925 C329.26117489 540.42754678 320.53624761 540.42929423 311.81131363 540.4335537 C310.56987826 540.43414888 309.32844289 540.43474407 308.04938827 540.4353573 C305.52742051 540.43656905 303.00545275 540.43778318 300.483485 540.43899968 C283.54586342 540.44678866 266.60824495 540.45070487 249.67062187 540.44668293 C249.00830757 540.44652655 248.34599326 540.44637018 247.66360883 540.44620906 C244.30683749 540.4454033 240.95006617 540.44455753 237.59329484 540.44369576 C236.5933229 540.44343913 236.5933229 540.44343913 235.57314949 540.44317731 C234.22502412 540.44283066 232.87689875 540.44248213 231.52877338 540.44213173 C210.56205298 540.4367771 189.59537466 540.44469758 168.62866211 540.46316528 C145.0635151 540.48389747 121.4983875 540.49457438 97.93322957 540.4905898 C85.4596306 540.48867775 72.98606995 540.49116547 60.51247787 540.50530434 C49.89085286 540.51722207 39.26928975 540.51861875 28.64766388 540.50651417 C23.23040167 540.50062766 17.81325265 540.49951976 12.395998 540.51151657 C7.43145674 540.52238279 2.46712309 540.51926309 -2.49740849 540.50525489 C-4.28813193 540.50260996 -6.07887167 540.50496803 -7.86957909 540.51299075 C-17.98361636 540.55513835 -27.02296723 539.99676487 -36.80102539 537.12698364 C-36.80102539 536.46698364 -36.80102539 535.80698364 -36.80102539 535.12698364 C-37.70852539 535.02385864 -38.61602539 534.92073364 -39.55102539 534.81448364 C-42.83174383 534.12048551 -44.40991634 533.42612696 -46.80102539 531.12698364 C-46.80102539 530.46698364 -46.80102539 529.80698364 -46.80102539 529.12698364 C-47.94571289 528.94135864 -47.94571289 528.94135864 -49.11352539 528.75198364 C-51.80102539 528.12698364 -51.80102539 528.12698364 -54.80102539 526.12698364 C-54.80102539 525.13698364 -54.80102539 524.14698364 -54.80102539 523.12698364 C-55.79102539 523.12698364 -56.78102539 523.12698364 -57.80102539 523.12698364 C-57.80102539 522.13698364 -57.80102539 521.14698364 -57.80102539 520.12698364 C-58.79102539 519.79698364 -59.78102539 519.46698364 -60.80102539 519.12698364 C-60.80102539 518.46698364 -60.80102539 517.80698364 -60.80102539 517.12698364 C-61.46102539 517.12698364 -62.12102539 517.12698364 -62.80102539 517.12698364 C-62.80102539 515.80698364 -62.80102539 514.48698364 -62.80102539 513.12698364 C-63.79102539 512.79698364 -64.78102539 512.46698364 -65.80102539 512.12698364 C-65.80102539 510.47698364 -65.80102539 508.82698364 -65.80102539 507.12698364 C-66.46102539 507.12698364 -67.12102539 507.12698364 -67.80102539 507.12698364 C-67.80102539 504.48698364 -67.80102539 501.84698364 -67.80102539 499.12698364 C-68.79102539 498.79698364 -69.78102539 498.46698364 -70.80102539 498.12698364 C-70.80102539 347.97698364 -70.80102539 197.82698364 -70.80102539 43.12698364 C-69.31602539 42.63198364 -69.31602539 42.63198364 -67.80102539 42.12698364 C-67.86290039 40.95135864 -67.92477539 39.77573364 -67.98852539 38.56448364 C-68.01246712 34.08738063 -66.78893099 31.10279484 -64.80102539 27.12698364 C-64.14102539 27.12698364 -63.48102539 27.12698364 -62.80102539 27.12698364 C-62.80102539 25.80698364 -62.80102539 24.48698364 -62.80102539 23.12698364 C-62.14102539 23.12698364 -61.48102539 23.12698364 -60.80102539 23.12698364 C-60.55352539 22.54948364 -60.30602539 21.97198364 -60.05102539 21.37698364 C-58.61802551 18.79758385 -57.01677863 17.06576772 -54.80102539 15.12698364 C-54.14102539 15.12698364 -53.48102539 15.12698364 -52.80102539 15.12698364 C-52.47102539 14.13698364 -52.14102539 13.14698364 -51.80102539 12.12698364 C-51.14102539 12.12698364 -50.48102539 12.12698364 -49.80102539 12.12698364 C-49.80102539 11.46698364 -49.80102539 10.80698364 -49.80102539 10.12698364 C-48.15102539 9.79698364 -46.50102539 9.46698364 -44.80102539 9.12698364 C-44.80102539 8.46698364 -44.80102539 7.80698364 -44.80102539 7.12698364 C-39.25211324 4.30848858 -35.05967939 2.59433224 -28.80102539 3.12698364 C-28.80102539 2.46698364 -28.80102539 1.80698364 -28.80102539 1.12698364 C-19.20650748 -0.02777401 -9.64470143 -0.0134945 0 0 Z " fill="#223D85" transform="translate(76.801025390625,6.873016357421875)"/>
<path d="M0 0 C1.09699722 -0.00209976 1.09699722 -0.00209976 2.21615601 -0.00424194 C13.82181051 0.01402367 24.15205652 1.13108878 35 5.4375 C36.16402344 5.89125 37.32804688 6.345 38.52734375 6.8125 C40.50537175 7.61809686 42.47335406 8.4496633 44.421875 9.32421875 C47.23470128 10.53884828 50.08327052 11.50363486 53 12.4375 C53 13.0975 53 13.7575 53 14.4375 C53.7321875 14.54191406 54.464375 14.64632812 55.21875 14.75390625 C60.21712129 15.98243852 63.92984132 19.39454554 68 22.4375 C68.52223145 22.82147949 69.04446289 23.20545898 69.58251953 23.60107422 C94.21828824 41.73869137 110.07771103 65.48528809 117 95.4375 C117.226875 96.37078125 117.45375 97.3040625 117.6875 98.265625 C119.42589465 106.32984463 119.14043669 114.22195367 119 122.4375 C113.39 122.4375 107.78 122.4375 102 122.4375 C101.9484375 120.97183594 101.896875 119.50617188 101.84375 117.99609375 C100.9931087 101.19767975 97.87161125 84.98249274 89 70.4375 C89 69.4475 89 68.4575 89 67.4375 C88.34 67.4375 87.68 67.4375 87 67.4375 C85.80859375 65.6015625 85.80859375 65.6015625 84.4375 63.0625 C75.73486845 48.15871796 61.29926703 37.08713351 46 29.4375 C46 28.7775 46 28.1175 46 27.4375 C45.154375 27.334375 44.30875 27.23125 43.4375 27.125 C40 26.4375 40 26.4375 36.8125 25.02734375 C32.82806546 23.27596131 28.79875733 22.26575322 24.5625 21.3125 C23.85029297 21.14363281 23.13808594 20.97476563 22.40429688 20.80078125 C5.80588254 16.97153762 -12.60993168 16.56874731 -29 21.4375 C-29.99644531 21.7159375 -30.99289063 21.994375 -32.01953125 22.28125 C-55.95810869 29.56008351 -77.76209279 46.76965643 -89.8359375 68.78515625 C-103.29515041 94.45820798 -106.08793405 123.45119831 -97.68798828 151.29199219 C-96.19451535 155.94942304 -94.39403325 160.17587014 -92 164.4375 C-91.54415527 165.27474609 -91.54415527 165.27474609 -91.07910156 166.12890625 C-83.98483434 179.06753108 -72.78523379 197.50908874 -58 202.4375 C-58 203.0975 -58 203.7575 -58 204.4375 C-56.92492187 204.84162109 -56.92492187 204.84162109 -55.828125 205.25390625 C-52.98681414 206.44301839 -50.41912224 207.84142538 -47.75 209.375 C-40.0504873 213.61024597 -32.32139745 215.69558552 -23.796875 217.69140625 C-21 218.4375 -21 218.4375 -18.80688477 219.47192383 C-15.26664918 220.68977472 -11.98735833 220.6876028 -8.29296875 220.6328125 C-7.20487663 220.62856766 -7.20487663 220.62856766 -6.09480286 220.62423706 C-3.79219632 220.61309799 -1.48998773 220.58800566 0.8125 220.5625 C2.37955165 220.55246206 3.94660943 220.54333763 5.51367188 220.53515625 C9.34259978 220.5131793 13.17123256 220.47869339 17 220.4375 C16.63223832 226.74017439 15.83374078 231.77001843 13 237.4375 C1.80066901 237.73209997 -9.28479763 237.90741435 -20.375 236.125 C-21.48548706 235.94843872 -21.48548706 235.94843872 -22.6184082 235.76831055 C-27.23004511 234.95172637 -31.56956676 233.68392035 -35.98657227 232.13208008 C-37.82295257 231.49857675 -39.69220603 230.9624948 -41.5625 230.4375 C-45.47173149 229.30026902 -49.20255926 227.90317888 -53 226.4375 C-53 225.7775 -53 225.1175 -53 224.4375 C-53.72703125 224.32664062 -54.4540625 224.21578125 -55.203125 224.1015625 C-69.24116637 220.76850798 -84.26480457 205.74308364 -92.4296875 194.48046875 C-94.00340611 192.33222306 -94.00340611 192.33222306 -96.1953125 190.30078125 C-98 188.4375 -98 188.4375 -98 186.4375 C-98.99 186.1075 -99.98 185.7775 -101 185.4375 C-101 184.1175 -101 182.7975 -101 181.4375 C-101.66 181.4375 -102.32 181.4375 -103 181.4375 C-110.36446874 167.93031769 -118.38833729 151.06236504 -118 135.4375 C-118.66 135.4375 -119.32 135.4375 -120 135.4375 C-120.04998439 131.20574446 -120.08599164 126.97415204 -120.10986328 122.7421875 C-120.11983031 121.30693564 -120.13340887 119.87170358 -120.15087891 118.43652344 C-120.24831484 110.21751626 -120.05877304 102.4528355 -118 94.4375 C-117.77699219 93.37660156 -117.55398437 92.31570312 -117.32421875 91.22265625 C-115.45096552 83.21248753 -112.67425796 75.87915122 -108.421875 68.81640625 C-106.88375383 66.38486849 -106.88375383 66.38486849 -105.75 63.3125 C-99.32879355 48.15584519 -87.07048904 35.1043986 -74 25.4375 C-73.18378174 24.8189917 -73.18378174 24.8189917 -72.35107422 24.18798828 C-51.11289694 8.1169882 -26.61027914 -0.00486716 0 0 Z " fill="#F5F6F8" transform="translate(267,111.5625)"/>
<path d="M0 0 C0.33 0 0.66 0 1 0 C0.29827713 7.09519795 -1.28021359 13.88528126 -2.9375 20.8125 C-4.6668402 28.07067969 -6.31251698 35.29905765 -7.54199219 42.66064453 C-8.12208323 45.62356159 -9.06575592 48.36782052 -10.07421875 51.20703125 C-11.39254918 55.18427283 -12.50512235 59.21304443 -13.625 63.25 C-13.84325439 64.03125244 -14.06150879 64.81250488 -14.28637695 65.61743164 C-15.33434772 69.41270812 -16.22558333 73.12791667 -17 77 C-3.8 77 9.4 77 23 77 C22.505 78.485 22.505 78.485 22 80 C21.34 80 20.68 80 20 80 C19.75121094 80.70511719 19.50242187 81.41023438 19.24609375 82.13671875 C17.84395417 85.35856298 16.09672392 87.94692959 14.0625 90.8125 C13.24568914 91.97237142 12.42930146 93.13254094 11.61328125 94.29296875 C11.1848291 94.89931152 10.75637695 95.5056543 10.31494141 96.13037109 C8.10129028 99.27781639 5.9267478 102.451973 3.75 105.625 C3.29439697 106.28798096 2.83879395 106.95096191 2.36938477 107.6340332 C-1.81355044 113.72203905 -5.98356679 119.81887508 -10.15209961 125.91674805 C-13.23237044 130.42143217 -16.32058481 134.92047337 -19.41772461 139.41357422 C-23.60018974 145.48265105 -27.74727186 151.57148162 -31.8203125 157.71484375 C-33.55941139 160.33595874 -35.30489671 162.95243525 -37.0546875 165.56640625 C-37.86111694 166.77224365 -37.86111694 166.77224365 -38.68383789 168.00244141 C-39.74732788 169.59249525 -40.81158427 171.18203683 -41.87670898 172.77099609 C-43.91867885 175.8274115 -45.92282122 178.86935095 -47.79296875 182.03515625 C-48.19128906 182.68355469 -48.58960938 183.33195313 -49 184 C-49.33 184 -49.66 184 -50 184 C-49.37687984 177.21041796 -47.71878848 170.97167507 -45.8125 164.4375 C-43.06812223 154.86559379 -40.46265799 145.27218102 -38.04223633 135.61303711 C-37.04950851 131.71772506 -36.0343447 127.94746424 -34.515625 124.22265625 C-32.40153591 118.33262969 -31.31122001 112.11902669 -30 106 C-43.2 106 -56.4 106 -70 106 C-68.48898918 102.22247295 -67.23686237 99.61583482 -65.0234375 96.33984375 C-64.43884766 95.46924316 -63.85425781 94.59864258 -63.25195312 93.70166016 C-62.63255859 92.7894873 -62.01316406 91.87731445 -61.375 90.9375 C-60.10144161 89.04825857 -58.82800339 87.15893613 -57.5546875 85.26953125 C-56.94077148 84.36154785 -56.32685547 83.45356445 -55.69433594 82.51806641 C-54.2834112 80.42119642 -52.88798241 78.31637828 -51.5078125 76.19921875 C-48.34921269 71.36299687 -45.22276699 66.78362464 -41.2265625 62.59765625 C-39.88130452 61.00086875 -39.88130452 61.00086875 -39.1484375 58.796875 C-37.56314304 54.93608985 -35.31656466 51.6458001 -33 48.1875 C-32.32324219 47.14819336 -32.32324219 47.14819336 -31.6328125 46.08789062 C-30.47765853 44.35345087 -29.24461741 42.67140344 -28 41 C-27.34 41 -26.68 41 -26 41 C-25.89945312 40.44570312 -25.79890625 39.89140625 -25.6953125 39.3203125 C-24.84098348 36.46934935 -23.49731829 34.37031468 -21.875 31.875 C-21.24078125 30.89917969 -20.6065625 29.92335937 -19.953125 28.91796875 C-17.65925914 25.49093316 -15.28992583 22.12382413 -12.90234375 18.76171875 C-10.16750673 14.79143174 -7.58804066 10.7249911 -5.02001953 6.64526367 C-3.47781474 4.21169594 -2.04449684 2.04449684 0 0 Z " fill="#F8F9FA" transform="translate(334,181)"/>
<path d="M0 0 C0 0.66 0 1.32 0 2 C2.64 2.66 5.28 3.32 8 4 C8 4.66 8 5.32 8 6 C8.85271484 6.39251953 8.85271484 6.39251953 9.72265625 6.79296875 C15.88133453 10.05717388 21.24918337 14.94267907 26 20 C24.7508258 23.45925163 23.32472205 26.14693203 21 29 C16.90273491 27.63424497 14.50203862 25.82518517 11.4375 22.8125 C-4.02313189 8.64783284 -23.4783712 4.36470624 -43.96484375 4.6328125 C-50.3103907 4.91841704 -55.95416285 6.72966556 -61.875 8.90625 C-65 10 -65 10 -68 10 C-68 10.66 -68 11.32 -68 12 C-68.928125 12.33 -69.85625 12.66 -70.8125 13 C-82.79481701 18.16646462 -92.48443973 27.35603943 -98 39 C-99.485 39.495 -99.485 39.495 -101 40 C-101.0825 40.639375 -101.165 41.27875 -101.25 41.9375 C-102.07217911 45.29473136 -103.36189436 48.13098721 -104.8671875 51.23046875 C-108.15445488 59.26727071 -109.58038544 66.62804482 -109.5625 75.3125 C-109.5637085 76.34270264 -109.56491699 77.37290527 -109.56616211 78.43432617 C-109.34296075 89.19823215 -106.55115937 98.91032227 -103 109 C-102.67 109.99 -102.34 110.98 -102 112 C-101.34 112 -100.68 112 -100 112 C-98.57258069 113.95251647 -97.2483319 115.90892474 -95.9375 117.9375 C-89.31966685 127.7772786 -80.49775363 138.19058044 -68.67578125 141.6875 C-67.84626953 141.8421875 -67.84626953 141.8421875 -67 142 C-67 142.66 -67 143.32 -67 144 C-56.66984501 146.9552423 -46.82741873 148.4053251 -36.0625 148.4375 C-35.03390869 148.44716797 -34.00531738 148.45683594 -32.94555664 148.46679688 C-26.72241912 148.39872427 -21.30857569 147.52297044 -15.37280273 145.64086914 C-13 145 -13 145 -9 145 C-9.47859241 146.60433809 -9.95789558 148.20846416 -10.4375 149.8125 C-10.70433594 150.70582031 -10.97117187 151.59914063 -11.24609375 152.51953125 C-12.89235771 157.93599557 -12.89235771 157.93599557 -14.57421875 158.93603516 C-21.69311669 161.38850207 -28.52444276 161.44612052 -36 161.375 C-37.82917969 161.39240234 -37.82917969 161.39240234 -39.6953125 161.41015625 C-45.92565164 161.38997157 -51.29169977 161.06469506 -57.10229492 158.72241211 C-59.16369923 157.93768352 -61.13991299 157.54813394 -63.3125 157.1875 C-81.71261342 153.25147574 -97.59207402 138.01862702 -107.85546875 122.99609375 C-109 121 -109 121 -109 119 C-109.66 119 -110.32 119 -111 119 C-111.60479685 117.64611467 -112.20879754 116.29187368 -112.8125 114.9375 C-113.14894531 114.18339844 -113.48539063 113.42929687 -113.83203125 112.65234375 C-114.21746094 111.77707031 -114.60289062 110.90179688 -115 110 C-115.5053125 108.90558594 -116.010625 107.81117188 -116.53125 106.68359375 C-118.05368482 102.86535961 -118.99541721 99.15709331 -119.6875 95.125 C-119.81415039 94.39974121 -119.94080078 93.67448242 -120.07128906 92.92724609 C-121.40728199 84.55298316 -122.71529366 74.14588099 -120 66 C-119.61496448 63.27102562 -119.2601109 60.54871837 -118.9375 57.8125 C-118.84662109 57.06291016 -118.75574219 56.31332031 -118.66210938 55.54101562 C-118.4386269 53.69434465 -118.21894487 51.84721446 -118 50 C-117.34 50 -116.68 50 -116 50 C-115.92523438 49.3709375 -115.85046875 48.741875 -115.7734375 48.09375 C-114.86384371 42.1724728 -113.37176546 38.4209597 -109.4375 33.88671875 C-107.88197942 32.03543666 -107.88197942 32.03543666 -107.12109375 29.62890625 C-105.68810799 26.26862954 -103.53219739 23.87790169 -101.0625 21.25 C-100.57523438 20.72776855 -100.08796875 20.20553711 -99.5859375 19.66748047 C-89.47869403 9.0438322 -78.42547681 1.94365228 -64.8125 -3.3125 C-64.15934814 -3.56733154 -63.50619629 -3.82216309 -62.83325195 -4.0847168 C-43.23134057 -11.32466216 -18.82995377 -7.93230336 0 0 Z " fill="#F3F5F8" transform="translate(303,154)"/>
<path d="M0 0 C3.96 0.495 3.96 0.495 8 1 C8 1.66 8 2.32 8 3 C9.65 3.33 11.3 3.66 13 4 C13 4.66 13 5.32 13 6 C14.98 6.33 16.96 6.66 19 7 C19 7.66 19 8.32 19 9 C19.66 9 20.32 9 21 9 C21 9.99 21 10.98 21 12 C21.86625 12.1546875 21.86625 12.1546875 22.75 12.3125 C25.44333219 13.13546261 27.00371406 14.00371406 29 16 C29.25 18.6875 29.25 18.6875 29 21 C29.99 21 30.98 21 32 21 C32 21.99 32 22.98 32 24 C32.66 24 33.32 24 34 24 C34 25.98 34 27.96 34 30 C34.99 30 35.98 30 37 30 C37 32.97 37 35.94 37 39 C37.99 39.33 38.98 39.66 40 40 C40.04573215 97.67547497 40.08100019 155.35094828 40.10213066 213.02643778 C40.10462543 219.82849762 40.10721852 226.63055741 40.10986328 233.43261719 C40.1101248 234.10951941 40.11038632 234.78642163 40.11065576 235.48383604 C40.119185 257.44118165 40.13421249 279.398517 40.15259444 301.35585639 C40.17197708 324.55053485 40.18398791 347.74520718 40.18817699 370.93989432 C40.19092747 384.84207631 40.19962879 398.74422885 40.21583293 412.64640178 C40.22636767 422.16690871 40.22960863 431.68740032 40.22700275 441.20791267 C40.22571596 446.70880449 40.22775133 452.20964467 40.23841095 457.71052742 C40.24808429 462.73887552 40.24867378 467.76713685 40.24179779 472.79548879 C40.24094693 474.62189357 40.24353395 476.4483036 40.24976636 478.27469794 C40.25770455 480.7429857 40.25352066 483.21095343 40.24609566 485.67923546 C40.25134968 486.40074992 40.25660371 487.12226437 40.26201695 487.86564291 C40.2282916 492.7717084 40.2282916 492.7717084 38 495 C37.54188325 496.97235333 37.54188325 496.97235333 37.375 499.125 C37.25125 500.40375 37.1275 501.6825 37 503 C36.01 503.33 35.02 503.66 34 504 C34.061875 505.0828125 34.061875 505.0828125 34.125 506.1875 C33.99078695 509.20729369 33.24829381 511.26935729 32 514 C31.01 514 30.02 514 29 514 C29 514.99 29 515.98 29 517 C28.34 517 27.68 517 27 517 C26.67 517.99 26.34 518.98 26 520 C25.34 520 24.68 520 24 520 C24 520.99 24 521.98 24 523 C23.01 523 22.02 523 21 523 C21 523.66 21 524.32 21 525 C14.78948432 529.29560668 8.1764734 532.68893229 1 535 C-0.069412 535.34924363 -1.138824 535.69848726 -2.24064243 536.05831403 C-6.18320574 537.04589143 -9.80616757 537.279857 -13.83722115 537.25447559 C-14.98061406 537.25928531 -14.98061406 537.25928531 -16.14710581 537.26419219 C-18.69817413 537.27248532 -21.24900724 537.26657031 -23.80007935 537.26069641 C-25.64889266 537.26371742 -27.49770473 537.26760665 -29.34651458 537.27228898 C-34.42492931 537.28258453 -39.50327357 537.28038316 -44.58169413 537.27610838 C-50.05972464 537.27364393 -55.53773805 537.28265196 -61.01576233 537.29014587 C-71.74813606 537.30290368 -82.48048479 537.30468513 -93.21286483 537.30234561 C-101.93779972 537.30056314 -110.662727 537.30231058 -119.38766098 537.30657005 C-120.62909635 537.30716524 -121.87053172 537.30776043 -123.14958634 537.30837366 C-125.6715541 537.30958541 -128.19352186 537.31079954 -130.71548961 537.31201603 C-147.65311119 537.31980502 -164.59072966 537.32372123 -181.52835274 537.31969929 C-182.19066704 537.31954291 -182.85298135 537.31938654 -183.53536578 537.31922542 C-186.89213712 537.31841965 -190.24890844 537.31757388 -193.60567977 537.31671212 C-194.60565171 537.31645549 -194.60565171 537.31645549 -195.62582512 537.31619367 C-196.97395049 537.31584701 -198.32207586 537.31549848 -199.67020123 537.31514808 C-220.63692163 537.30979346 -241.60359995 537.31771394 -262.5703125 537.33618164 C-286.13545951 537.35691383 -309.70058711 537.36759074 -333.26574504 537.36360615 C-345.73934401 537.36169411 -358.21290466 537.36418183 -370.68649673 537.37832069 C-381.30812175 537.39023842 -391.92968486 537.39163511 -402.55131073 537.37953053 C-407.96857294 537.37364402 -413.38572196 537.37253611 -418.80297661 537.38453293 C-423.76751787 537.39539914 -428.73185152 537.39227945 -433.6963831 537.37827124 C-435.48710654 537.37562632 -437.27784628 537.37798439 -439.0685537 537.38600711 C-449.18259097 537.42815471 -458.22194184 536.86978123 -468 534 C-468 533.34 -468 532.68 -468 532 C-468.9075 531.896875 -469.815 531.79375 -470.75 531.6875 C-474.03071844 530.99350187 -475.60889095 530.29914332 -478 528 C-478 527.34 -478 526.68 -478 526 C-473.84137198 527.30303678 -469.82742624 528.57784376 -465.9375 530.5625 C-459.82697342 533.55275769 -453.79448144 534.29715336 -447.06588745 534.26171303 C-446.30533041 534.26570909 -445.54477336 534.26970515 -444.76116914 534.27382231 C-442.22206021 534.28475894 -439.68317057 534.28160064 -437.14404297 534.2784729 C-435.30159987 534.28347789 -433.45915897 534.28935428 -431.61672115 534.29602563 C-426.56108433 534.31181498 -421.5055031 534.31525573 -416.4498446 534.31667423 C-410.99524877 534.32037012 -405.54068338 534.33552656 -400.08610535 534.34928894 C-390.63806477 534.37155961 -381.19003502 534.38657407 -371.74197388 534.39665604 C-358.08167691 534.41124334 -344.42141768 534.43678035 -330.76114285 534.46498732 C-308.5980963 534.51045434 -286.4350437 534.54708657 -264.27197266 534.578125 C-242.7429916 534.60829647 -221.21402378 534.6426385 -199.68505859 534.68261719 C-198.68935459 534.68446369 -198.68935459 534.68446369 -197.67353535 534.6863475 C-190.34577988 534.69994168 -183.01802463 534.71364989 -175.69026947 534.72740483 C-120.4601982 534.83097129 -65.23011033 534.920175 -10 535 C-10 534.34 -10 533.68 -10 533 C-8.92685547 532.79697266 -8.92685547 532.79697266 -7.83203125 532.58984375 C6.69181604 529.45209149 18.84352883 522.52128547 27 510 C34.87611016 497.00664313 35.44127521 483.43031223 35.3742218 468.69271851 C35.37696663 466.8620495 35.38102233 465.03138208 35.38626546 463.20071852 C35.3967989 458.20036697 35.38875812 453.20019557 35.37751496 448.19985199 C35.36864104 442.79558561 35.37712562 437.39134199 35.38337708 431.98707581 C35.39284815 421.41258992 35.38628023 410.83817244 35.37411413 400.26369165 C35.36046966 387.94380955 35.36213413 375.62394362 35.36424746 363.30405588 C35.36743482 341.32052844 35.3557837 319.33703345 35.33618164 297.35351562 C35.31717395 276.03090871 35.31009563 254.70835697 35.31567383 233.38574219 C35.32173375 210.15310817 35.32155099 186.92049085 35.310188 163.68785822 C35.30898073 161.20993145 35.30777475 158.73200468 35.30657005 156.25407791 C35.30596651 155.03495974 35.30536298 153.81584156 35.30474115 152.55978041 C35.30086469 143.97567703 35.30125455 135.39157988 35.3031559 126.80747604 C35.30527955 116.34551185 35.30004069 105.88358091 35.28554235 95.42162608 C35.27830678 90.0856061 35.27421423 84.74963452 35.27878571 79.41361046 C35.28287119 74.52593155 35.27767084 69.63835243 35.26515963 64.75068863 C35.26223928 62.98575418 35.26265354 61.22081029 35.26680271 59.4558783 C35.30374926 42.16572776 33.80581613 27.26141818 21.33984375 14.1015625 C15.07875409 8.47807963 7.91822018 3.87935279 0 1 C0 0.67 0 0.34 0 0 Z " fill="#F2F4F7" transform="translate(508,10)"/>
<path d="M0 0 C1.99263591 0.68836513 3.99041337 1.36281399 6 2 C6 2.66 6 3.32 6 4 C7.07507813 4.37318359 7.07507813 4.37318359 8.171875 4.75390625 C11.29174142 6.12854353 13.59600352 7.80397289 16.25 9.9375 C17.12140625 10.62714844 17.9928125 11.31679687 18.890625 12.02734375 C21 14 21 14 22 17 C22.66 17.33 23.32 17.66 24 18 C23.38390949 22.00458831 21.44939347 24.83019669 19 28 C18.01 28 17.02 28 16 28 C14.78125 26.53125 14.78125 26.53125 13.5 24.5 C7.60059578 16.26419807 -1.32714429 10.76367306 -11 8 C-15.04018261 7.47216422 -18.99286661 7.43829994 -23.0625 7.5 C-24.08666016 7.48453125 -25.11082031 7.4690625 -26.16601562 7.453125 C-32.99515025 7.48803431 -38.03067778 8.70391232 -44 12 C-44.70229736 12.37801758 -45.40459473 12.75603516 -46.12817383 13.14550781 C-55.09019649 18.13440995 -61.70237362 25.29032234 -65 35 C-65.391875 36.093125 -65.78375 37.18625 -66.1875 38.3125 C-66.455625 39.199375 -66.72375 40.08625 -67 41 C-67.17917969 41.5878125 -67.35835937 42.175625 -67.54296875 42.78125 C-69.148458 50.57542005 -68.06033738 59.18001185 -67 67 C-66.34 67 -65.68 67 -65 67 C-64.47212891 68.051875 -64.47212891 68.051875 -63.93359375 69.125 C-57.99823438 80.53080808 -50.80961766 89.59298763 -38.48046875 94.21875 C-35.2943614 95.22224838 -32.32345415 95.71100399 -29 96 C-29.56545837 99.95820859 -30.80902348 102.6659053 -33 106 C-34.75091019 105.91245449 -36.50079551 105.80426627 -38.25 105.6875 C-39.22453125 105.62949219 -40.1990625 105.57148438 -41.203125 105.51171875 C-44.29955118 104.94519385 -45.61560887 103.98361049 -48 102 C-49.546875 101.443125 -49.546875 101.443125 -51.125 100.875 C-63.52625165 95.78115255 -70.72415409 82.9233152 -76.58203125 71.66015625 C-77.75561172 69.14726148 -77.75561172 69.14726148 -79 68 C-81.86301344 52.06670782 -81.00156996 36.19490108 -72.25 22.1875 C-71.2005942 20.76598346 -70.11486638 19.37077889 -69 18 C-68.3296875 17.16855469 -67.659375 16.33710938 -66.96875 15.48046875 C-59.07380316 6.20946603 -50.68556955 0.43998275 -39 -3 C-38.27296875 -3.22558594 -37.5459375 -3.45117188 -36.796875 -3.68359375 C-24.23440316 -7.05685008 -11.65091688 -5.27588689 0 0 Z " fill="#F1F3F6" transform="translate(289,179)"/>
<path d="M0 0 C4.13589691 3.63151924 6.92955275 7.540719 8 13 C8.26327828 17.53977143 8.44701313 21.6589606 7 26 C6.34 26 5.68 26 5 26 C4.76023437 26.76699219 4.52046875 27.53398437 4.2734375 28.32421875 C2.37708555 32.30888467 -0.16854529 33.25997871 -4.0703125 35.046875 C-10.29475625 37.07189403 -16.34192003 37.13214517 -22.375 34.5625 C-26.55635958 30.4806966 -31.86968846 24.47149952 -32.09765625 18.3984375 C-32.08605469 17.40070313 -32.07445312 16.40296875 -32.0625 15.375 C-32.05347656 14.37210938 -32.04445312 13.36921875 -32.03515625 12.3359375 C-32.02355469 11.56507813 -32.01195312 10.79421875 -32 10 C-31.34 10 -30.68 10 -30 10 C-29.979375 9.29875 -29.95875 8.5975 -29.9375 7.875 C-28.30505576 2.86883765 -24.0609249 0.19316705 -19.625 -2.375 C-12.88991288 -3.97859217 -6.02675427 -3.60336466 0 0 Z " fill="#F7F8FA" transform="translate(278,214)"/>
<path d="M0 0 C4.15862802 1.30303678 8.17257376 2.57784376 12.0625 4.5625 C18.21064702 7.57116769 24.25908267 8.29671616 31.02781677 8.24609566 C32.1838477 8.24955719 32.1838477 8.24955719 33.36323279 8.25308865 C35.93682359 8.25836795 38.51016241 8.24942188 41.08374023 8.24050903 C42.95093024 8.24138152 44.81812 8.24313331 46.68530846 8.24568737 C51.80937488 8.25015634 56.93335758 8.24216335 62.05741334 8.23213124 C67.58561336 8.22349259 73.11380868 8.2264172 78.64201355 8.22793579 C88.21775429 8.22898438 97.79346777 8.2227105 107.36920166 8.21146011 C121.21409476 8.19520455 135.05897469 8.18999705 148.9038763 8.18748413 C171.36642649 8.18310712 193.82896235 8.16981503 216.29150391 8.15087891 C238.11149012 8.13250571 259.93147244 8.1183406 281.75146484 8.10986328 C282.42423185 8.10960023 283.09699886 8.10933718 283.79015274 8.10906615 C290.54644912 8.10642908 297.30274553 8.10387746 304.05904197 8.10138843 C360.70603818 8.08051166 417.35301832 8.04522403 474 8 C473.34 8.99 472.68 9.98 472 11 C469.51135965 11.30067957 467.26978649 11.40212477 464.778018 11.37752342 C464.02152528 11.38188374 463.26503256 11.38624407 462.48561582 11.39073652 C459.92396432 11.40177648 457.36284174 11.39123043 454.80119324 11.38095093 C452.95669394 11.38440411 451.11219671 11.38916637 449.26770383 11.39513266 C444.1779583 11.40772033 439.08838032 11.40143705 433.99863398 11.39217401 C428.51710317 11.38541494 423.03560214 11.39584942 417.55407715 11.40411377 C406.8042935 11.41748996 396.05457251 11.41455527 385.30478635 11.40587585 C376.56542739 11.39911107 367.82608605 11.39817736 359.08672523 11.4014473 C357.84461242 11.401907 356.6024996 11.40236669 355.322747 11.40284032 C352.79957156 11.40379948 350.27639614 11.40477212 347.75322071 11.4057581 C324.7363715 11.41407992 301.7195519 11.40543396 278.70270988 11.38973031 C257.70323679 11.37551185 236.7038183 11.37675009 215.7043457 11.39111328 C192.11542696 11.40719363 168.52653148 11.41348112 144.93760663 11.40427649 C142.42015382 11.40332084 139.90270101 11.40237773 137.38524818 11.4014473 C136.14658191 11.40098447 134.90791563 11.40052164 133.63171401 11.40004479 C124.90991173 11.39745641 116.18812885 11.40182303 107.46632957 11.40888596 C96.82628015 11.41731252 86.1862971 11.41499724 75.54625525 11.39904372 C70.11890458 11.39117381 64.69166444 11.38804736 59.26431465 11.39799118 C54.29031702 11.40696617 49.3165318 11.40195902 44.3425533 11.38605852 C42.54831772 11.38272235 40.754064 11.38437842 38.9598402 11.39168589 C28.83760082 11.42973061 19.78568193 10.87251289 10 8 C10 7.34 10 6.68 10 6 C9.0925 5.896875 8.185 5.79375 7.25 5.6875 C3.96928156 4.99350187 2.39110905 4.29914332 0 2 C0 1.34 0 0.68 0 0 Z " fill="#FDFEFE" transform="translate(30,536)"/>
<path d="M0 0 C15 0 15 0 19 1 C19 1.66 19 2.32 19 3 C19.5775 3.0825 20.155 3.165 20.75 3.25 C23.69632751 4.23210917 25.03027912 5.62275066 27 8 C28.75951206 13.3470886 28.61030163 19.44782953 27.3125 24.875 C24.32437612 29.71291485 20.02352678 31.48823661 15 34 C10.05 34 5.1 34 0 34 C0 22.78 0 11.56 0 0 Z " fill="#D1D7E4" transform="translate(215,408)"/>
<path d="M0 0 C1.17190381 3.51571144 1.13270355 6.66591641 1.11466789 10.32217503 C1.11492295 11.07734363 1.115178 11.83251224 1.11544079 12.61056474 C1.11507773 15.16151085 1.10752323 17.71238638 1.10006714 20.26332092 C1.09835619 22.10256857 1.09709334 23.94181668 1.09624207 25.78106493 C1.09264319 30.85149705 1.08283042 35.92190148 1.07208848 40.9923228 C1.06162991 46.45467602 1.05697908 51.91703424 1.05175781 57.37939453 C1.04203366 66.85097344 1.02898746 76.32254306 1.01403427 85.79411507 C0.99069284 100.7638974 0.97766898 115.73368039 0.96633911 130.70347595 C0.96233735 135.82277397 0.95826869 140.94207194 0.95417976 146.0613699 C0.95316054 147.34084362 0.95214131 148.62031735 0.95109119 149.93856301 C0.93934234 164.51104565 0.9254789 179.08352608 0.91064453 193.65600586 C0.90996937 194.32204429 0.9092942 194.98808273 0.90859858 195.67430415 C0.89281242 211.20820751 0.87489426 226.74210593 0.85229492 242.27600098 C0.85132365 242.94373282 0.85035238 243.61146466 0.84935168 244.29943081 C0.84150528 249.68141721 0.83358312 255.0634035 0.82564141 260.44538976 C0.79202017 283.27138604 0.76975435 306.09737621 0.75840485 328.9233951 C0.75117774 342.5931511 0.73446444 356.26283013 0.70560409 369.93255787 C0.68661255 379.30218329 0.67851866 388.67177799 0.67900907 398.04142249 C0.67894601 403.44816817 0.67396204 408.85479299 0.65584183 414.26151085 C0.63934432 419.21308728 0.6367397 424.16447119 0.64509059 429.11606627 C0.64566376 430.90551615 0.64116629 432.69497652 0.63102923 434.48439778 C0.56069665 447.50802028 0.56069665 447.50802028 4 460 C4.37971225 460.94481762 4.37971225 460.94481762 4.76709545 461.90872246 C8.2476325 470.04595794 12.68709176 476.7782059 19 483 C19.73863281 483.73992187 20.47726563 484.47984375 21.23828125 485.2421875 C22.11033203 486.11230469 22.11033203 486.11230469 23 487 C19.62537285 486.45276317 17.91765 485.9451 15 484 C15 483.01 15 482.02 15 481 C14.01 481 13.02 481 12 481 C12 480.01 12 479.02 12 478 C11.01 477.67 10.02 477.34 9 477 C9 476.34 9 475.68 9 475 C8.34 475 7.68 475 7 475 C7 473.68 7 472.36 7 471 C6.01 470.67 5.02 470.34 4 470 C4 468.35 4 466.7 4 465 C3.34 465 2.68 465 2 465 C2 462.36 2 459.72 2 457 C1.01 456.67 0.02 456.34 -1 456 C-1.02286375 398.05271186 -1.04049891 340.1054241 -1.05106533 282.15813235 C-1.05231272 275.32474122 -1.05360927 268.4913501 -1.05493164 261.65795898 C-1.0550624 260.97793632 -1.05519316 260.29791365 -1.05532788 259.59728424 C-1.05959303 237.53594936 -1.06710717 215.47461703 -1.07629722 193.4132837 C-1.08598696 170.11021694 -1.09199361 146.80715203 -1.09408849 123.5040831 C-1.09546406 109.5358825 -1.09981644 95.56768922 -1.10791647 81.59949087 C-1.11318194 72.03507522 -1.11480475 62.47066337 -1.11350138 52.90624637 C-1.11285769 47.37916519 -1.113879 41.85209686 -1.11920547 36.32501793 C-1.124038 31.27392104 -1.12433963 26.22284575 -1.12089889 21.17174792 C-1.12047306 19.33594102 -1.12177002 17.50013283 -1.12488318 15.66432852 C-1.12884476 13.18584236 -1.12676491 10.70743615 -1.12304783 8.22895145 C-1.12567484 7.50160129 -1.12830186 6.77425113 -1.13100848 6.02486005 C-1.1141458 1.1141458 -1.1141458 1.1141458 0 0 Z " fill="#DBE1E9" transform="translate(7,49)"/>
<path d="M0 0 C15.89285714 0 15.89285714 0 20.8125 4.75 C22.56355678 8.06779179 22.51845997 10.30597275 22 14 C19.46994149 17.16257314 16.90389148 19.77306268 13 21 C10.30914296 21.15035617 7.69985393 21.08999513 5 21 C5 25.29 5 29.58 5 34 C3.35 34 1.7 34 0 34 C0 22.78 0 11.56 0 0 Z " fill="#D3D7E4" transform="translate(295,408)"/>
<path d="M0 0 C1.98 0 3.96 0 6 0 C6.30292969 0.88300781 6.60585938 1.76601563 6.91796875 2.67578125 C9.29175354 9.47576169 11.80290763 16.07845945 14.88671875 22.59765625 C16.78767548 26.69972077 18 29.40089441 18 34 C15.69 34 13.38 34 11 34 C10.34 31.03 9.68 28.06 9 25 C4.71 24.67 0.42 24.34 -4 24 C-4.66 27.3 -5.32 30.6 -6 34 C-7.98 34 -9.96 34 -12 34 C-11.24097011 30.67300952 -10.16226517 27.52482916 -9.00390625 24.31640625 C-8.61009766 23.22392578 -8.21628906 22.13144531 -7.81054688 21.00585938 C-7.39869141 19.86955078 -6.98683594 18.73324219 -6.5625 17.5625 C-6.15451172 16.43005859 -5.74652344 15.29761719 -5.32617188 14.13085938 C-3.61442337 9.39213635 -1.89467773 4.66919877 0 0 Z " fill="#C7CEDE" transform="translate(272,408)"/>
<path d="M0 0 C0.66 0 1.32 0 2 0 C4.7173721 4.98184886 6.52225517 9.33034565 7.5078125 14.921875 C7.91661368 17.03110834 7.91661368 17.03110834 8.9921875 18.890625 C11.46101782 24.05794428 11.12829942 29.77698813 11.0625 35.375 C11.05798828 36.11105469 11.05347656 36.84710938 11.04882812 37.60546875 C11.03715142 39.40368158 11.01922011 41.20185197 11 43 C7.04 43 3.08 43 -1 43 C-1.19916016 40.84791016 -1.19916016 40.84791016 -1.40234375 38.65234375 C-1.58064015 36.7473875 -1.75903053 34.84244004 -1.9375 32.9375 C-2.02451172 31.99455078 -2.11152344 31.05160156 -2.20117188 30.08007812 C-2.57480633 26.10848223 -2.96332295 22.2093008 -3.65234375 18.27734375 C-4.0619382 14.41611068 -3.50204258 11.39869699 -2.625 7.625 C-2.34914063 6.40039062 -2.07328125 5.17578125 -1.7890625 3.9140625 C-1 1 -1 1 0 0 Z " fill="#F2F4F7" transform="translate(340,191)"/>
<path d="M0 0 C10.31428571 0 10.31428571 0 15 4 C17.24666134 7.36999202 17.2457371 8.56105462 17.1875 12.5 C17.18105469 13.4590625 17.17460937 14.418125 17.16796875 15.40625 C16.94808164 18.8017161 16.34956818 20.59217046 14.125 23.1875 C11 25 11 25 0 25 C0 16.75 0 8.5 0 0 Z " fill="#2A4589" transform="translate(220,412)"/>
<path d="M0 0 C1.87945312 0.08701172 1.87945312 0.08701172 3.796875 0.17578125 C5.06015625 0.22089844 6.3234375 0.26601563 7.625 0.3125 C8.58921875 0.37050781 9.5534375 0.42851562 10.546875 0.48828125 C10.876875 2.13828125 11.206875 3.78828125 11.546875 5.48828125 C10.62003906 5.47667969 9.69320313 5.46507812 8.73828125 5.453125 C6.94197266 5.43958984 6.94197266 5.43958984 5.109375 5.42578125 C3.31693359 5.40837891 3.31693359 5.40837891 1.48828125 5.390625 C-1.34185841 5.14926333 -1.34185841 5.14926333 -2.453125 6.48828125 C-2.95372416 8.90310538 -2.95372416 8.90310538 -2.453125 11.48828125 C-0.05882786 13.33531047 2.2243021 14.36731641 5.046875 15.42578125 C8.2887968 16.80359801 10.19984265 17.80595857 12.546875 20.48828125 C12.97112081 23.86103541 12.83718848 27.10774211 12.546875 30.48828125 C6.12063654 35.27059824 0.36185929 34.91134807 -7.453125 34.48828125 C-7.453125 32.83828125 -7.453125 31.18828125 -7.453125 29.48828125 C-6.18855469 29.50568359 -6.18855469 29.50568359 -4.8984375 29.5234375 C-3.80273438 29.53246094 -2.70703125 29.54148437 -1.578125 29.55078125 C-0.48757813 29.56238281 0.60296875 29.57398438 1.7265625 29.5859375 C4.49865046 29.68572428 4.49865046 29.68572428 6.546875 28.48828125 C6.546875 26.50828125 6.546875 24.52828125 6.546875 22.48828125 C5.78761719 22.1015625 5.02835937 21.71484375 4.24609375 21.31640625 C3.25222656 20.795625 2.25835937 20.27484375 1.234375 19.73828125 C0.24824219 19.2278125 -0.73789062 18.71734375 -1.75390625 18.19140625 C-4.45390967 16.48778615 -5.85790545 15.22674148 -7.453125 12.48828125 C-7.96280076 8.48368599 -7.92407775 6.29696438 -5.87890625 2.78515625 C-3.453125 0.48828125 -3.453125 0.48828125 0 0 Z " fill="#E1E4ED" transform="translate(330.453125,407.51171875)"/>
<path d="M0 0 C0 2.64 0 5.28 0 8 C-0.99 8.33 -1.98 8.66 -3 9 C-2.95875 9.721875 -2.9175 10.44375 -2.875 11.1875 C-3.00921305 14.20729369 -3.75170619 16.26935729 -5 19 C-5.99 19 -6.98 19 -8 19 C-8 19.99 -8 20.98 -8 22 C-8.66 22 -9.32 22 -10 22 C-10.495 23.485 -10.495 23.485 -11 25 C-11.66 25 -12.32 25 -13 25 C-13 25.99 -13 26.98 -13 28 C-13.99 28 -14.98 28 -16 28 C-16 28.66 -16 29.32 -16 30 C-26.48781725 37.2540736 -34.35674322 40.92902631 -47 39 C-47 38.67 -47 38.34 -47 38 C-45.92685547 37.79697266 -45.92685547 37.79697266 -44.83203125 37.58984375 C-31.50437991 34.71051933 -19.60991675 28.52830413 -11.51171875 17.390625 C-9.13741352 13.63590975 -7.26511285 9.66130341 -5.39453125 5.63671875 C-2.41333333 0 -2.41333333 0 0 0 Z " fill="#E7EAEF" transform="translate(545,505)"/>
<path d="M0 0 C1.66666667 0 3.33333333 0 5 0 C6.85776765 3.13498292 7.20140476 5.37471432 7 9 C7.99 9.33 8.98 9.66 10 10 C11.09765625 11.671875 11.09765625 11.671875 12.0625 13.75 C12.56716797 14.8328125 12.56716797 14.8328125 13.08203125 15.9375 C13.38496094 16.618125 13.68789063 17.29875 14 18 C14.4125 18.9075 14.825 19.815 15.25 20.75 C16 23 16 23 16 27 C13.69 27 11.38 27 9 27 C8.34 24.03 7.68 21.06 7 18 C2.71 17.67 -1.58 17.34 -6 17 C-6 16.67 -6 16.34 -6 16 C-5.21753906 15.95101563 -4.43507813 15.90203125 -3.62890625 15.8515625 C-2.61699219 15.77679688 -1.60507812 15.70203125 -0.5625 15.625 C0.44683594 15.55539062 1.45617187 15.48578125 2.49609375 15.4140625 C3.73552734 15.20910156 3.73552734 15.20910156 5 15 C5.33 14.34 5.66 13.68 6 13 C3.03 13 0.06 13 -3 13 C-2.52060632 8.28596212 -2.03165952 4.33420699 0 0 Z " fill="#B9C2D7" transform="translate(274,415)"/>
<path d="M0 0 C1.65 0 3.3 0 5 0 C5 11.22 5 22.44 5 34 C3.35 34 1.7 34 0 34 C0 22.78 0 11.56 0 0 Z " fill="#D3D9E6" transform="translate(250,408)"/>
<path d="M0 0 C4.62 0 9.24 0 14 0 C14 0.33 14 0.66 14 1 C9.71 1 5.42 1 1 1 C1 11.56 1 22.12 1 33 C1.66 33 2.32 33 3 33 C2.91621094 31.98421875 2.83242188 30.9684375 2.74609375 29.921875 C2.1036822 21.48521255 1.96191211 13.43246775 3 5 C3.33 5 3.66 5 4 5 C4 8.96 4 12.92 4 17 C7.3 17 10.6 17 14 17 C13.67 18.32 13.34 19.64 13 21 C10.36 21 7.72 21 5 21 C5 25.29 5 29.58 5 34 C3.35 34 1.7 34 0 34 C0 22.78 0 11.56 0 0 Z " fill="#CED4E1" transform="translate(295,408)"/>
<path d="M0 0 C1.32 0 2.64 0 4 0 C4 0.66 4 1.32 4 2 C4.5775 2.0825 5.155 2.165 5.75 2.25 C8.69632751 3.23210917 10.03027912 4.62275066 12 7 C13.78198124 12.41537157 13.67805797 18.6267971 12.125 24.0625 C11 26 11 26 9 27 C9.33 26.01 9.66 25.02 10 24 C10.22451458 21.77425665 10.40782878 19.54418481 10.5625 17.3125 C10.64628906 16.13300781 10.73007813 14.95351563 10.81640625 13.73828125 C10.90728516 12.38283203 10.90728516 12.38283203 11 11 C10.34 11 9.68 11 9 11 C8.67 14.96 8.34 18.92 8 23 C7.34 23 6.68 23 6 23 C6.03480469 22.10796875 6.06960937 21.2159375 6.10546875 20.296875 C6.13253906 19.12640625 6.15960938 17.9559375 6.1875 16.75 C6.22230469 15.58984375 6.25710937 14.4296875 6.29296875 13.234375 C5.97283471 9.70009522 5.50373211 8.45309483 3 6 C0.12941351 4.16140122 -2.38043226 3.6723148 -5.75 3.375 C-6.54921875 3.30023438 -7.3484375 3.22546875 -8.171875 3.1484375 C-8.77515625 3.09945313 -9.3784375 3.05046875 -10 3 C-10 2.67 -10 2.34 -10 2 C-6.7 1.67 -3.4 1.34 0 1 C0 0.67 0 0.34 0 0 Z " fill="#BCC3D7" transform="translate(230,409)"/>
<path d="M0 0 C7.32215357 -0.36010591 7.32215357 -0.36010591 10 1.0625 C11.56257703 4.08999299 11.3032864 6.66384962 11 10 C9 12 9 12 6.8359375 12.1953125 C4.55729167 12.13020833 2.27864583 12.06510417 0 12 C0 8.04 0 4.08 0 0 Z " fill="#2E478B" transform="translate(300,412)"/>
<path d="M0 0 C2.64 0.33 5.28 0.66 8 1 C8 1.66 8 2.32 8 3 C9.65 3.33 11.3 3.66 13 4 C13 4.66 13 5.32 13 6 C15.97 6.495 15.97 6.495 19 7 C19 7.66 19 8.32 19 9 C19.66 9 20.32 9 21 9 C21 9.99 21 10.98 21 12 C21.86625 12.1546875 21.86625 12.1546875 22.75 12.3125 C25.44333219 13.13546261 27.00371406 14.00371406 29 16 C29.25 18.6875 29.25 18.6875 29 21 C29.99 21 30.98 21 32 21 C32 21.99 32 22.98 32 24 C32.66 24 33.32 24 34 24 C34.125 26.875 34.125 26.875 34 30 C33.34 30.66 32.68 31.32 32 32 C31.78085937 31.443125 31.56171875 30.88625 31.3359375 30.3125 C27.01617161 19.91696581 21.03066375 13.64019394 12 7 C11.12601563 6.34644531 11.12601563 6.34644531 10.234375 5.6796875 C7.00534076 3.3853737 3.79671619 2.08477606 0 1 C0 0.67 0 0.34 0 0 Z " fill="#F1F3F5" transform="translate(508,10)"/>
<path d="M0 0 C0.33 0 0.66 0 1 0 C1 3.3 1 6.6 1 10 C-5.42623846 14.78231699 -11.18501571 14.42306682 -19 14 C-19 12.35 -19 10.7 -19 9 C-17.73542969 9.01740234 -17.73542969 9.01740234 -16.4453125 9.03515625 C-15.34960938 9.04417969 -14.25390625 9.05320312 -13.125 9.0625 C-11.48917969 9.07990234 -11.48917969 9.07990234 -9.8203125 9.09765625 C-7.04822454 9.19744303 -7.04822454 9.19744303 -5 8 C-4.34227572 4.97065509 -4.34227572 4.97065509 -4 2 C-3.67 2 -3.34 2 -3 2 C-2.67 3.65 -2.34 5.3 -2 7 C-1.67 7 -1.34 7 -1 7 C-0.67 4.69 -0.34 2.38 0 0 Z " fill="#DADFE9" transform="translate(342,428)"/>
<path d="M0 0 C1.98 0 3.96 0 6 0 C6.83719383 2.29032311 7.6698929 4.58210957 8.5 6.875 C8.73847656 7.52597656 8.97695313 8.17695313 9.22265625 8.84765625 C11 13.7734375 11 13.7734375 11 16 C10.34 16 9.68 16 9 16 C8.34 13.03 7.68 10.06 7 7 C6.34 8.32 5.68 9.64 5 11 C4.67 9.68 4.34 8.36 4 7 C3.34 7 2.68 7 2 7 C1.67 7.99 1.34 8.98 1 10 C-1.5625 11.1875 -1.5625 11.1875 -4 12 C-2.66666667 8 -1.33333333 4 0 0 Z " fill="#CCD2E2" transform="translate(272,408)"/>
<path d="M0 0 C4.29 0 8.58 0 13 0 C13 0.66 13 1.32 13 2 C9.7 2 6.4 2 3 2 C2.32807613 12.0188648 1.84276076 21.95415947 2 32 C1.34 32 0.68 32 0 32 C0 21.44 0 10.88 0 0 Z " fill="#F2F3F6" transform="translate(296,409)"/>
<path d="M0 0 C0.66 0 1.32 0 2 0 C2.70226141 1.24176695 3.38629109 2.49385599 4.0625 3.75 C4.44535156 4.44609375 4.82820313 5.1421875 5.22265625 5.859375 C6.1312406 8.36140628 5.88336837 9.5332355 5 12 C4.34 10.02 3.68 8.04 3 6 C2.01 6.66 1.02 7.32 0 8 C-0.62744936 10.8756867 -0.62744936 10.8756867 -0.75 14.1875 C-0.82734375 15.29480469 -0.9046875 16.40210938 -0.984375 17.54296875 C-1.00061617 21.1363276 -0.51692259 24.44761469 0 28 C0.06515057 30.64511313 0.08591426 33.29168825 0.0625 35.9375 C0.05798828 36.62134766 0.05347656 37.30519531 0.04882812 38.00976562 C0.0371956 39.67321604 0.01926694 41.3366205 0 43 C-0.33 43 -0.66 43 -1 43 C-1.05534912 42.40050537 -1.11069824 41.80101074 -1.16772461 41.18334961 C-1.42253147 38.43456428 -1.67999616 35.68603394 -1.9375 32.9375 C-2.02451172 31.99455078 -2.11152344 31.05160156 -2.20117188 30.08007812 C-2.57480633 26.10848223 -2.96332295 22.2093008 -3.65234375 18.27734375 C-4.0619382 14.41611068 -3.50204258 11.39869699 -2.625 7.625 C-2.34914063 6.40039062 -2.07328125 5.17578125 -1.7890625 3.9140625 C-1 1 -1 1 0 0 Z " fill="#8897BD" transform="translate(340,191)"/>
<path d="M0 0 C0.66 0 1.32 0 2 0 C2.8600893 12.88222642 2.8600893 12.88222642 -0.125 16.6875 C-3.07201471 19.05792487 -5.33515542 20.14771056 -9 21 C-7.53333333 15.5 -7.53333333 15.5 -5 13.125 C-3 12 -3 12 -1 12 C-1.01160156 11.30132812 -1.02320313 10.60265625 -1.03515625 9.8828125 C-1.04417969 8.97273438 -1.05320313 8.06265625 -1.0625 7.125 C-1.07410156 6.22007812 -1.08570313 5.31515625 -1.09765625 4.3828125 C-1 2 -1 2 0 0 Z " fill="#E2E5ED" transform="translate(239,420)"/>
<path d="M0 0 C0.66 0 1.32 0 2 0 C2.50833591 1.24663331 3.00631145 2.49749387 3.5 3.75 C3.7784375 4.44609375 4.056875 5.1421875 4.34375 5.859375 C5 8 5 8 5 12 C2.36 12 -0.28 12 -3 12 C-2.69106068 10.3743193 -2.3777305 8.74947252 -2.0625 7.125 C-1.88847656 6.22007812 -1.71445312 5.31515625 -1.53515625 4.3828125 C-1 2 -1 2 0 0 Z " fill="#2E4689" transform="translate(274,415)"/>
<path d="M0 0 C1.51340155 4.2038932 0.72030914 5.95783601 0 11 C19.305 11.495 19.305 11.495 39 12 C38.67 12.66 38.34 13.32 38 14 C18.2 13.505 18.2 13.505 -2 13 C-1 3 -1 3 0 0 Z " fill="#6378AA" transform="translate(319,245)"/>
<path d="M0 0 C0.5465625 0.68964844 1.093125 1.37929688 1.65625 2.08984375 C4.22897282 5.28430791 6.85346102 8.42919977 9.5 11.5625 C9.97308594 12.12646484 10.44617187 12.69042969 10.93359375 13.27148438 C13.50565674 16.31734845 16.12699444 19.22863379 19 22 C15.62537285 21.45276317 13.91765 20.9451 11 19 C11 18.01 11 17.02 11 16 C10.01 16 9.02 16 8 16 C8 15.01 8 14.02 8 13 C7.01 12.67 6.02 12.34 5 12 C5 11.34 5 10.68 5 10 C4.34 10 3.68 10 3 10 C3 8.68 3 7.36 3 6 C2.01 5.67 1.02 5.34 0 5 C0 3.35 0 1.7 0 0 Z " fill="#E4E6EB" transform="translate(11,514)"/>
<path d="M0 0 C0.66 0.33 1.32 0.66 2 1 C0.07141188 3.00931971 -1.866898 5.00727269 -3.8125 7 C-4.63331055 7.85851562 -4.63331055 7.85851562 -5.47070312 8.734375 C-6.92391154 10.21400538 -8.45816374 11.61296658 -10 13 C-10.99 13 -11.98 13 -13 13 C-13.33 14.32 -13.66 15.64 -14 17 C-14.66 17 -15.32 17 -16 17 C-16 16.01 -16 15.02 -16 14 C-15.34 14 -14.68 14 -14 14 C-13.7525 13.4225 -13.505 12.845 -13.25 12.25 C-11.81700012 9.67060021 -10.21575324 7.93878408 -8 6 C-7.34 6 -6.68 6 -6 6 C-5.67 5.01 -5.34 4.02 -5 3 C-4.34 3 -3.68 3 -3 3 C-3 2.34 -3 1.68 -3 1 C-2.01 0.67 -1.02 0.34 0 0 Z " fill="#5E74A6" transform="translate(30,16)"/>
<path d="M0 0 C0.97986834 3.11306818 0.97295291 5.26259277 0.328125 8.44921875 C0.15796875 9.29806641 -0.0121875 10.14691406 -0.1875 11.02148438 C-0.373125 11.90126953 -0.55875 12.78105469 -0.75 13.6875 C-0.92015625 14.54794922 -1.0903125 15.40839844 -1.265625 16.29492188 C-2.30481694 21.36480315 -3.62865063 26.2155671 -5.35571289 31.09472656 C-6.12339715 33.36490768 -6.61863387 35.63553 -7 38 C-7.33 38 -7.66 38 -8 38 C-7.85936865 35.70800823 -7.71234057 33.41640814 -7.5625 31.125 C-7.48128906 29.84882813 -7.40007812 28.57265625 -7.31640625 27.2578125 C-7 24 -7 24 -6 22 C-5.34 22 -4.68 22 -4 22 C-3.96261719 21.41734375 -3.92523438 20.8346875 -3.88671875 20.234375 C-3.32790944 13.2656942 -1.84009453 6.73544035 0 0 Z " fill="#8C9CC2" transform="translate(329,202)"/>
<path d="M0 0 C0.33 0 0.66 0 1 0 C0.34034961 6.86036401 -1.2362764 13.34443923 -3 20 C-3.84062397 16.90226756 -4.08935201 14.21667249 -4 11 C-4.99 11.33 -5.98 11.66 -7 12 C-5.45052978 7.60983438 -3.33033996 3.33033996 0 0 Z " fill="#AEB9D4" transform="translate(334,181)"/>
<path d="M0 0 C4.15862802 1.30303678 8.17257376 2.57784376 12.0625 4.5625 C15.66880002 6.32728512 19.08637906 7.1228091 23 8 C23 8.33 23 8.66 23 9 C18.48382401 9.07654536 14.40914783 9.10228696 10 8 C10 7.34 10 6.68 10 6 C9.0925 5.896875 8.185 5.79375 7.25 5.6875 C3.96928156 4.99350187 2.39110905 4.29914332 0 2 C0 1.34 0 0.68 0 0 Z " fill="#ECEEF1" transform="translate(30,536)"/>
<path d="M0 0 C4.29 0 8.58 0 13 0 C13.33 0.66 13.66 1.32 14 2 C7.565 2.495 7.565 2.495 1 3 C1 10.59 1 18.18 1 26 C0.67 26 0.34 26 0 26 C0 17.42 0 8.84 0 0 Z " fill="#FCFCFD" transform="translate(217,409)"/>
<path d="M0 0 C2.02910711 0.25327449 4.04962145 0.57730068 6.0625 0.9375 C7.16722656 1.13214844 8.27195312 1.32679688 9.41015625 1.52734375 C10.69212891 1.76130859 10.69212891 1.76130859 12 2 C11.67 2.99 11.34 3.98 11 5 C10.24074219 5.06058594 9.48148437 5.12117188 8.69921875 5.18359375 C7.70535156 5.26738281 6.71148437 5.35117187 5.6875 5.4375 C4.70136719 5.51871094 3.71523438 5.59992188 2.69921875 5.68359375 C-0.09375599 5.91812559 -0.09375599 5.91812559 -3 7 C-1.125 1.125 -1.125 1.125 0 0 Z " fill="#FAFBFC" transform="translate(268,426)"/>
<path d="M0 0 C0.33 0 0.66 0 1 0 C1.10824843 1.6026782 1.18570645 3.20745748 1.25 4.8125 C1.29640625 5.70582031 1.3428125 6.59914063 1.390625 7.51953125 C1 10 1 10 -0.828125 11.82421875 C-3 13 -3 13 -6 13 C-6 12.34 -6 11.68 -6 11 C-8.64 11 -11.28 11 -14 11 C-14 10.67 -14 10.34 -14 10 C-11.03 9.34 -8.06 8.68 -5 8 C-4.67 6.02 -4.34 4.04 -4 2 C-3.67 2 -3.34 2 -3 2 C-2.67 3.65 -2.34 5.3 -2 7 C-1.67 7 -1.34 7 -1 7 C-0.67 4.69 -0.34 2.38 0 0 Z " fill="#C9CFE0" transform="translate(342,428)"/>
<path d="M0 0 C0.66 0.33 1.32 0.66 2 1 C-0.4293086 3.48730862 -2.86977494 5.96337167 -5.3125 8.4375 C-6.34793945 9.49807617 -6.34793945 9.49807617 -7.40429688 10.58007812 C-8.07138672 11.25361328 -8.73847656 11.92714844 -9.42578125 12.62109375 C-10.03848877 13.2442749 -10.65119629 13.86745605 -11.2824707 14.50952148 C-13 16 -13 16 -16 17 C-13.02550302 10.00118357 -5.98898148 4.44343788 0 0 Z " fill="#C8CFE0" transform="translate(216,162)"/>
<path d="M0 0 C3.96 0 7.92 0 12 0 C12 0.66 12 1.32 12 2 C8.7 2 5.4 2 2 2 C1.67 6.62 1.34 11.24 1 16 C0.67 16 0.34 16 0 16 C0 10.72 0 5.44 0 0 Z " fill="#FDFDFE" transform="translate(297,409)"/>
<path d="M0 0 C0.99 0 1.98 0 3 0 C6 6.625 6 6.625 6 10 C4.68 10 3.36 10 2 10 C0.39644899 6.49223216 -0.22036864 3.85645121 0 0 Z " fill="#EFF1F5" transform="translate(283,431)"/>
<path d="M0 0 C-1.43409972 3.35861695 -3.19369321 5.35874939 -5.9375 7.75 C-6.62714844 8.36359375 -7.31679687 8.9771875 -8.02734375 9.609375 C-10 11 -10 11 -13 11 C-4.00842697 0 -4.00842697 0 0 0 Z " fill="#415A99" transform="translate(243,192)"/>
<path d="M0 0 C1.59338671 3.18677343 2.90100036 6.23050099 4.125 9.5625 C4.47820313 10.51253906 4.83140625 11.46257813 5.1953125 12.44140625 C6 15 6 15 6 18 C5.34 17.34 4.68 16.68 4 16 C4 15.01 4 14.02 4 13 C3.01 13 2.02 13 1 13 C0.67 8.71 0.34 4.42 0 0 Z " fill="#B2BACF" transform="translate(8,501)"/>
<path d="M0 0 C2.64 0.33 5.28 0.66 8 1 C8 1.66 8 2.32 8 3 C9.1446875 3.0928125 9.1446875 3.0928125 10.3125 3.1875 C13 4 13 4 14.8125 6.5625 C15.204375 7.366875 15.59625 8.17125 16 9 C13.50629873 7.84906095 11.39124515 6.57651836 9.125 5 C6.10371329 3.06637651 3.43212548 1.98060728 0 1 C0 0.67 0 0.34 0 0 Z " fill="#D0D6E4" transform="translate(508,10)"/>
<path d="M0 0 C0.93423645 3.01031744 1.04449911 3.86650268 0 7 C0.66 7.33 1.32 7.66 2 8 C-0.75 13.875 -0.75 13.875 -3 15 C-2.44854729 9.76119922 -1.57077907 5.02649303 0 0 Z " fill="#B0B8D0" transform="translate(287,350)"/>
<path d="M0 0 C0.66 0.33 1.32 0.66 2 1 C0.75796305 2.46512126 -0.49397056 3.92185645 -1.75 5.375 C-2.44609375 6.18710938 -3.1421875 6.99921875 -3.859375 7.8359375 C-5.85949643 9.85795807 -7.39531129 10.93231229 -10 12 C-8.52278578 8.54798361 -6.56205999 6.35038064 -3.875 3.75 C-3.15054688 3.04359375 -2.42609375 2.3371875 -1.6796875 1.609375 C-1.12539062 1.07828125 -0.57109375 0.5471875 0 0 Z " fill="#5970A6" transform="translate(218,175)"/>
<path d="M0 0 C0.66 0.33 1.32 0.66 2 1 C0.21427748 2.83947337 -1.57802449 4.67157741 -3.375 6.5 C-3.88289062 7.02464844 -4.39078125 7.54929688 -4.9140625 8.08984375 C-6.23832604 9.43153181 -7.61605865 10.71995815 -9 12 C-9.66 12 -10.32 12 -11 12 C-9.49650623 8.33213607 -7.36271208 6.31089607 -4.375 3.75 C-3.14910156 2.69039062 -3.14910156 2.69039062 -1.8984375 1.609375 C-1.27195313 1.07828125 -0.64546875 0.5471875 0 0 Z " fill="#CAD1E1" transform="translate(190,139)"/>
<path d="M0 0 C1.32 0 2.64 0 4 0 C4.33 1.32 4.66 2.64 5 4 C0.05 3.67 -4.9 3.34 -10 3 C-10 2.67 -10 2.34 -10 2 C-6.7 1.67 -3.4 1.34 0 1 C0 0.67 0 0.34 0 0 Z " fill="#E7E9F0" transform="translate(230,409)"/>
<path d="M0 0 C0.99 0 1.98 0 3 0 C6.07692308 5.41538462 6.07692308 5.41538462 5.6875 8.375 C5.460625 8.91125 5.23375 9.4475 5 10 C4.34 8.02 3.68 6.04 3 4 C2.01 4.33 1.02 4.66 0 5 C0 3.35 0 1.7 0 0 Z " fill="#BCC6DC" transform="translate(340,193)"/>
<path d="M0 0 C0.66 0 1.32 0 2 0 C3.42944945 2.35438733 4.08661261 3.48032433 3.625 6.25 C3.41875 6.8275 3.2125 7.405 3 8 C2.67 6.68 2.34 5.36 2 4 C1.34 4 0.68 4 0 4 C-0.33 5.65 -0.66 7.3 -1 9 C-2.0326802 6.21176345 -2.04509293 5.1322726 -1.0625 2.25 C-0.711875 1.5075 -0.36125 0.765 0 0 Z " fill="#6A7AAB" transform="translate(274,415)"/>
<path d="M0 0 C-1.5830577 4.2742558 -4.50568404 6.26531794 -8 9 C-8 6 -8 6 -6.7578125 4.39453125 C-5.94957031 3.61142578 -5.94957031 3.61142578 -5.125 2.8125 C-4.59132812 2.28269531 -4.05765625 1.75289062 -3.5078125 1.20703125 C-2 0 -2 0 0 0 Z " fill="#C7CDDE" transform="translate(231,187)"/>
<path d="M0 0 C0.66 0 1.32 0 2 0 C2 2.64 2 5.28 2 8 C1.01 8.33 0.02 8.66 -1 9 C-1.125 2.25 -1.125 2.25 0 0 Z " fill="#F7F8F9" transform="translate(239,420)"/>
<path d="M0 0 C-1.14453125 1.51953125 -1.14453125 1.51953125 -3 3 C-5.69921875 3.07421875 -5.69921875 3.07421875 -8.6875 2.6875 C-10.17830078 2.50767578 -10.17830078 2.50767578 -11.69921875 2.32421875 C-12.45847656 2.21722656 -13.21773438 2.11023438 -14 2 C-14 1.67 -14 1.34 -14 1 C-12.04310963 0.63794536 -10.08442332 0.28558579 -8.125 -0.0625 C-7.03445313 -0.25972656 -5.94390625 -0.45695313 -4.8203125 -0.66015625 C-2 -1 -2 -1 0 0 Z " fill="#4C629F" transform="translate(276,249)"/>
<path d="M0 0 C0 3.92998307 -1.27858835 6.49342071 -3 10 C-3.99 10.66 -4.98 11.32 -6 12 C-4.68139111 7.38486888 -2.78644563 3.90102388 0 0 Z " fill="#637BAC" transform="translate(181,173)"/>
<path d="M0 0 C0.66 0.33 1.32 0.66 2 1 C0.576875 2.36125 0.576875 2.36125 -0.875 3.75 C-3.14549867 6.00978877 -4.83296506 7.96570916 -6 11 C-6.66 11 -7.32 11 -8 11 C-8 10.01 -8 9.02 -8 8 C-7.34 8 -6.68 8 -6 8 C-5.7525 7.4225 -5.505 6.845 -5.25 6.25 C-3.83316683 3.6997003 -2.12372463 1.98214299 0 0 Z " fill="#B1BBD3" transform="translate(22,22)"/>
<path d="M0 0 C1.2065625 0.0309375 1.2065625 0.0309375 2.4375 0.0625 C2.4375 1.0525 2.4375 2.0425 2.4375 3.0625 C-0.8625 3.0625 -4.1625 3.0625 -7.5625 3.0625 C-6.2425 2.4025 -4.9225 1.7425 -3.5625 1.0625 C-2.5625 0.0625 -2.5625 0.0625 0 0 Z " fill="#DDE1EC" transform="translate(337.5625,408.9375)"/>
<path d="M0 0 C2.91227269 3.28804981 4.49701212 5.59885603 5 10 C4.34 10 3.68 10 3 10 C3 8.68 3 7.36 3 6 C2.01 5.67 1.02 5.34 0 5 C0 3.35 0 1.7 0 0 Z " fill="#EFEFF3" transform="translate(11,514)"/>
<path d="M0 0 C0.625 1.8125 0.625 1.8125 1 4 C0.01 5.485 0.01 5.485 -1 7 C-1.99 6.67 -2.98 6.34 -4 6 C-1.125 1.125 -1.125 1.125 0 0 Z " fill="#F3F5F8" transform="translate(265,434)"/>
</svg>
